<svg width="256" height="256" viewBox="0 0 256 256" fill="none" xmlns="http://www.w3.org/2000/svg">
<g clip-path="url(#clip0_308_46)">
<rect width="256" height="256" rx="43.6148" fill="url(#paint0_linear_308_46)"/>
<rect x="106.193" y="-90.0741" width="254.104" height="254.104" rx="127.052" fill="#1A29FF" fill-opacity="0.14"/>
<mask id="mask0_308_46" style="mask-type:alpha" maskUnits="userSpaceOnUse" x="56" y="164" width="141" height="59">
<path d="M143.17 169.244H181.477C182.472 166.217 185.321 164.03 188.682 164.03C192.871 164.03 196.267 167.426 196.267 171.615C196.267 175.804 192.871 179.199 188.682 179.2C185.321 179.2 182.472 177.013 181.477 173.985H143.17V179.2H112.829V173.985H88.3703C89.9773 175.049 91.3943 176.264 92.6574 177.603C96.9483 182.152 99.2948 187.983 101.502 193.211C103.778 198.602 105.925 203.409 109.686 206.957C112.297 209.42 115.816 211.382 121.002 212.297C122.149 209.564 124.851 207.645 128 207.645C132.189 207.645 135.585 211.041 135.585 215.23C135.585 219.419 132.189 222.815 128 222.815C124.436 222.815 121.446 220.356 120.634 217.041C114.427 216.026 109.897 213.674 106.432 210.406C101.838 206.072 99.3614 200.331 97.134 195.055C94.8378 189.617 92.7986 184.662 89.2082 180.856C85.7523 177.192 80.6833 174.44 71.9865 173.985H71.6789C70.6835 177.013 67.8351 179.2 64.4738 179.2C60.2848 179.199 56.8889 175.804 56.8889 171.615C56.889 167.426 60.2848 164.03 64.4738 164.03C67.835 164.03 70.6833 166.217 71.6789 169.244H112.829V164.03H143.17V169.244Z" fill="white"/>
</mask>
<g mask="url(#mask0_308_46)">
<g filter="url(#filter1_d_308_46)">
<rect x="51.2" y="164.03" width="150.756" height="58.7852" fill="url(#paint1_linear_308_46)"/>
</g>
</g>
<g filter="url(#filter2_d_308_46)">
<path d="M127.879 112.155C127 119.702 124.399 126.296 120.076 131.938C115.827 137.58 110.185 141.976 103.151 145.126C96.1172 148.277 88.0576 149.852 78.9723 149.852C69.1542 149.852 60.5817 148.057 53.2548 144.467C45.9278 140.877 40.2128 135.858 36.1098 129.41C32.08 122.889 30.0651 115.306 30.0651 106.66C30.0651 98.0144 32.08 90.4677 36.1098 84.02C40.2128 77.499 45.9278 72.4434 53.2548 68.8532C60.5817 65.263 69.1542 63.468 78.9723 63.468C88.0576 63.468 96.1172 65.0432 103.151 68.1938C110.185 71.3444 115.827 75.7405 120.076 81.3823C124.399 87.024 127 93.6182 127.879 101.165H99.4144C98.7549 98.3075 97.546 95.8896 95.7875 93.9113C94.0291 91.8598 91.7211 90.3211 88.8636 89.2953C86.0794 88.1963 82.7823 87.6468 78.9723 87.6468C74.7226 87.6468 71.0592 88.4161 67.9819 89.9548C64.9778 91.4202 62.6699 93.5816 61.0579 96.4391C59.446 99.2966 58.6401 102.704 58.6401 106.66C58.6401 110.617 59.446 114.024 61.0579 116.881C62.6699 119.665 64.9778 121.827 67.9819 123.366C71.0592 124.904 74.7226 125.674 78.9723 125.674C82.7823 125.674 86.0794 125.197 88.8636 124.245C91.7211 123.219 94.0291 121.717 95.7875 119.739C97.546 117.687 98.7549 115.159 99.4144 112.155H127.879ZM134.718 120.728H163.512C163.805 122.34 164.648 123.732 166.04 124.904C167.432 126.003 169.337 126.882 171.755 127.542C174.173 128.128 177.067 128.421 180.437 128.421C184.834 128.421 188.241 127.981 190.659 127.102C193.15 126.223 194.395 124.794 194.395 122.816C194.395 121.497 193.699 120.398 192.307 119.519C190.915 118.566 188.057 117.944 183.735 117.651L170.107 116.771C157.724 115.965 148.785 113.328 143.29 108.858C137.795 104.389 135.047 98.4906 135.047 91.1637C135.047 85.0091 136.806 79.8803 140.323 75.7772C143.84 71.6741 148.749 68.5968 155.05 66.5453C161.424 64.4937 168.861 63.468 177.36 63.468C185.64 63.468 192.967 64.6403 199.341 66.9849C205.789 69.2562 210.881 72.4801 214.618 76.6564C218.428 80.8328 220.516 85.7052 220.882 91.2736H192.087C191.867 89.9548 191.135 88.8191 189.889 87.8666C188.717 86.9141 187.032 86.1814 184.834 85.6685C182.636 85.1556 179.961 84.8992 176.811 84.8992C172.781 84.8992 169.594 85.3022 167.249 86.1081C164.978 86.9141 163.842 88.2329 163.842 90.0647C163.842 91.3102 164.501 92.3727 165.82 93.2519C167.212 94.1311 169.85 94.7173 173.733 95.0103L189.12 95.9995C197.18 96.5124 203.7 97.7213 208.683 99.6263C213.665 101.458 217.292 104.022 219.563 107.32C221.908 110.617 223.08 114.683 223.08 119.519C223.08 125.6 221.285 130.912 217.695 135.455C214.105 139.998 209.049 143.551 202.528 146.116C196.08 148.607 188.534 149.852 179.888 149.852C170.949 149.852 163.109 148.643 156.369 146.226C149.628 143.808 144.352 140.401 140.542 136.004C136.806 131.608 134.864 126.516 134.718 120.728Z" fill="url(#paint2_radial_308_46)"/>
</g>
</g>
<defs>
<filter id="filter1_d_308_46" x="47.4074" y="164.03" width="158.341" height="66.3704" filterUnits="userSpaceOnUse" color-interpolation-filters="sRGB">
<feFlood flood-opacity="0" result="BackgroundImageFix"/>
<feColorMatrix in="SourceAlpha" type="matrix" values="0 0 0 0 0 0 0 0 0 0 0 0 0 0 0 0 0 0 127 0" result="hardAlpha"/>
<feOffset dy="3.79259"/>
<feGaussianBlur stdDeviation="1.8963"/>
<feComposite in2="hardAlpha" operator="out"/>
<feColorMatrix type="matrix" values="0 0 0 0 0 0 0 0 0 0 0 0 0 0 0 0 0 0 0.25 0"/>
<feBlend mode="normal" in2="BackgroundImageFix" result="effect1_dropShadow_308_46"/>
<feBlend mode="normal" in="SourceGraphic" in2="effect1_dropShadow_308_46" result="shape"/>
</filter>
<filter id="filter2_d_308_46" x="26.2725" y="63.468" width="200.6" height="93.9696" filterUnits="userSpaceOnUse" color-interpolation-filters="sRGB">
<feFlood flood-opacity="0" result="BackgroundImageFix"/>
<feColorMatrix in="SourceAlpha" type="matrix" values="0 0 0 0 0 0 0 0 0 0 0 0 0 0 0 0 0 0 127 0" result="hardAlpha"/>
<feOffset dy="3.79259"/>
<feGaussianBlur stdDeviation="1.8963"/>
<feComposite in2="hardAlpha" operator="out"/>
<feColorMatrix type="matrix" values="0 0 0 0 0 0 0 0 0 0 0 0 0 0 0 0 0 0 0.25 0"/>
<feBlend mode="normal" in2="BackgroundImageFix" result="effect1_dropShadow_308_46"/>
<feBlend mode="normal" in="SourceGraphic" in2="effect1_dropShadow_308_46" result="shape"/>
</filter>
<linearGradient id="paint0_linear_308_46" x1="256" y1="-117.57" x2="-70.511" y2="227.302" gradientUnits="userSpaceOnUse">
<stop stop-color="#1A29FF"/>
<stop offset="0.908599" stop-color="#150000"/>
</linearGradient>
<linearGradient id="paint1_linear_308_46" x1="127.052" y1="222.815" x2="127.052" y2="171.141" gradientUnits="userSpaceOnUse">
<stop stop-color="#6839F7"/>
<stop offset="1" stop-color="white"/>
</linearGradient>
<radialGradient id="paint2_radial_308_46" cx="0" cy="0" r="1" gradientUnits="userSpaceOnUse" gradientTransform="translate(119.467 109.985) rotate(-6.26902) scale(172.81 282.658)">
<stop offset="0.158654" stop-color="white"/>
<stop offset="1" stop-color="#A6A6A6"/>
</radialGradient>
<clipPath id="clip0_308_46">
<rect width="256" height="256" rx="43.6148" fill="white"/>
</clipPath>
</defs>
</svg>
