<svg width="256" height="256" viewBox="0 0 256 256" fill="none" xmlns="http://www.w3.org/2000/svg">
<g clip-path="url(#clip0_308_46)">
<rect width="256" height="256" rx="43.6148" fill="url(#paint0_linear_308_46)"/>
<rect x="69" y="-52" width="254.104" height="254.104" rx="127.052" fill="white" fill-opacity="0.14"/>
<rect y="-8" width="256" height="264" fill="black" fill-opacity="0.2"/>
<mask id="mask0_308_46" style="mask-type:alpha" maskUnits="userSpaceOnUse" x="56" y="164" width="141" height="59">
<path d="M143.17 169.244H181.477C182.472 166.217 185.321 164.03 188.682 164.03C192.871 164.03 196.267 167.426 196.267 171.615C196.267 175.804 192.871 179.199 188.682 179.2C185.321 179.2 182.472 177.013 181.477 173.985H143.17V179.2H112.829V173.985H88.3703C89.9773 175.049 91.3943 176.264 92.6574 177.603C96.9483 182.152 99.2948 187.983 101.502 193.211C103.778 198.602 105.925 203.409 109.686 206.957C112.297 209.42 115.816 211.382 121.002 212.297C122.149 209.564 124.851 207.645 128 207.645C132.189 207.645 135.585 211.041 135.585 215.23C135.585 219.419 132.189 222.815 128 222.815C124.436 222.815 121.446 220.356 120.634 217.041C114.427 216.026 109.897 213.674 106.432 210.406C101.838 206.072 99.3614 200.331 97.134 195.055C94.8378 189.617 92.7986 184.662 89.2082 180.856C85.7523 177.192 80.6833 174.44 71.9865 173.985H71.6789C70.6835 177.013 67.8351 179.2 64.4738 179.2C60.2848 179.199 56.8889 175.804 56.8889 171.615C56.889 167.426 60.2848 164.03 64.4738 164.03C67.835 164.03 70.6833 166.217 71.6789 169.244H112.829V164.03H143.17V169.244Z" fill="white"/>
</mask>
<g mask="url(#mask0_308_46)">
<g filter="url(#filter1_d_308_46)">
<rect x="51.2" y="164.03" width="150.756" height="58.7852" fill="white"/>
</g>
</g>
<g filter="url(#filter2_d_308_46)">
<path d="M128.331 112.281C127.452 119.828 124.851 126.422 120.528 132.064C116.279 137.706 110.637 142.102 103.603 145.252C96.5691 148.403 88.5095 149.978 79.4241 149.978C69.606 149.978 61.0335 148.183 53.7066 144.593C46.3797 141.003 40.6647 135.984 36.5616 129.536C32.5318 123.015 30.5169 115.432 30.5169 106.786C30.5169 98.1403 32.5318 90.5936 36.5616 84.1459C40.6647 77.6249 46.3797 72.5694 53.7066 68.9792C61.0335 65.389 69.606 63.5939 79.4241 63.5939C88.5095 63.5939 96.5691 65.1692 103.603 68.3197C110.637 71.4703 116.279 75.8665 120.528 81.5082C124.851 87.1499 127.452 93.7442 128.331 101.291H99.8662C99.2068 98.4334 97.9979 96.0155 96.2394 94.0372C94.4809 91.9857 92.173 90.447 89.3155 89.4213C86.5312 88.3222 83.2341 87.7727 79.4241 87.7727C75.1745 87.7727 71.511 88.542 68.4337 90.0807C65.4297 91.5461 63.1217 93.7075 61.5098 96.565C59.8979 99.4225 59.0919 102.83 59.0919 106.786C59.0919 110.743 59.8979 114.15 61.5098 117.007C63.1217 119.791 65.4297 121.953 68.4337 123.491C71.511 125.03 75.1745 125.799 79.4241 125.799C83.2341 125.799 86.5312 125.323 89.3155 124.371C92.173 123.345 94.4809 121.843 96.2394 119.865C97.9979 117.813 99.2068 115.285 99.8662 112.281H128.331ZM135.169 120.854H163.964C164.257 122.466 165.1 123.858 166.492 125.03C167.884 126.129 169.789 127.008 172.207 127.668C174.625 128.254 177.519 128.547 180.889 128.547C185.286 128.547 188.693 128.107 191.11 127.228C193.602 126.349 194.847 124.92 194.847 122.942C194.847 121.623 194.151 120.524 192.759 119.645C191.367 118.692 188.509 118.07 184.186 117.776L170.558 116.897C158.176 116.091 149.237 113.454 143.742 108.984C138.247 104.515 135.499 98.6166 135.499 91.2896C135.499 85.135 137.258 80.0062 140.774 75.9031C144.291 71.8 149.2 68.7227 155.502 66.6712C161.876 64.6197 169.313 63.5939 177.812 63.5939C186.091 63.5939 193.418 64.7662 199.793 67.1108C206.24 69.3821 211.333 72.606 215.069 76.7823C218.879 80.9587 220.968 85.8311 221.334 91.3995H192.539C192.319 90.0807 191.587 88.945 190.341 87.9925C189.169 87.04 187.484 86.3073 185.286 85.7944C183.087 85.2816 180.413 85.0251 177.263 85.0251C173.233 85.0251 170.046 85.4281 167.701 86.2341C165.43 87.04 164.294 88.3589 164.294 90.1906C164.294 91.4362 164.953 92.4986 166.272 93.3778C167.664 94.257 170.302 94.8432 174.185 95.1363L189.572 96.1254C197.631 96.6383 204.152 97.8472 209.135 99.7522C214.117 101.584 217.744 104.148 220.015 107.445C222.36 110.743 223.532 114.809 223.532 119.645C223.532 125.726 221.737 131.038 218.147 135.581C214.557 140.124 209.501 143.677 202.98 146.242C196.532 148.733 188.986 149.978 180.34 149.978C171.401 149.978 163.561 148.769 156.82 146.351C150.08 143.934 144.804 140.527 140.994 136.13C137.258 131.734 135.316 126.642 135.169 120.854Z" fill="url(#paint1_radial_308_46)"/>
</g>
</g>
<defs>
<filter id="filter1_d_308_46" x="47.4074" y="164.03" width="158.341" height="66.3704" filterUnits="userSpaceOnUse" color-interpolation-filters="sRGB">
<feFlood flood-opacity="0" result="BackgroundImageFix"/>
<feColorMatrix in="SourceAlpha" type="matrix" values="0 0 0 0 0 0 0 0 0 0 0 0 0 0 0 0 0 0 127 0" result="hardAlpha"/>
<feOffset dy="3.79259"/>
<feGaussianBlur stdDeviation="1.8963"/>
<feComposite in2="hardAlpha" operator="out"/>
<feColorMatrix type="matrix" values="0 0 0 0 0 0 0 0 0 0 0 0 0 0 0 0 0 0 0.25 0"/>
<feBlend mode="normal" in2="BackgroundImageFix" result="effect1_dropShadow_308_46"/>
<feBlend mode="normal" in="SourceGraphic" in2="effect1_dropShadow_308_46" result="shape"/>
</filter>
<filter id="filter2_d_308_46" x="26.7243" y="63.5939" width="200.6" height="93.9696" filterUnits="userSpaceOnUse" color-interpolation-filters="sRGB">
<feFlood flood-opacity="0" result="BackgroundImageFix"/>
<feColorMatrix in="SourceAlpha" type="matrix" values="0 0 0 0 0 0 0 0 0 0 0 0 0 0 0 0 0 0 127 0" result="hardAlpha"/>
<feOffset dy="3.79259"/>
<feGaussianBlur stdDeviation="1.8963"/>
<feComposite in2="hardAlpha" operator="out"/>
<feColorMatrix type="matrix" values="0 0 0 0 0 0 0 0 0 0 0 0 0 0 0 0 0 0 0.25 0"/>
<feBlend mode="normal" in2="BackgroundImageFix" result="effect1_dropShadow_308_46"/>
<feBlend mode="normal" in="SourceGraphic" in2="effect1_dropShadow_308_46" result="shape"/>
</filter>
<linearGradient id="paint0_linear_308_46" x1="214.5" y1="34" x2="-1.19287" y2="266.393" gradientUnits="userSpaceOnUse">
<stop stop-color="#3C54FF"/>
<stop offset="1" stop-color="#9B30FF"/>
</linearGradient>
<radialGradient id="paint1_radial_308_46" cx="0" cy="0" r="1" gradientTransform="matrix(171.725 -16.9709 30.8562 252.687 119.891 102.953)" gradientUnits="userSpaceOnUse">
<stop offset="0.158654" stop-color="white"/>
<stop offset="1" stop-color="#A6A6A6"/>
</radialGradient>
<clipPath id="clip0_308_46">
<rect width="256" height="256" rx="43.6148" fill="white"/>
</clipPath>
</defs>
</svg>
